<?xml version="1.0" standalone="no"?>
<!DOCTYPE svg PUBLIC "-//W3C//DTD SVG 20010904//EN"
 "http://www.w3.org/TR/2001/REC-SVG-20010904/DTD/svg10.dtd">
<svg version="1.0" xmlns="http://www.w3.org/2000/svg"
 width="165.000000pt" height="165.000000pt" viewBox="0 0 165.000000 165.000000"
 preserveAspectRatio="xMidYMid meet">

<g transform="translate(0.000000,165.000000) scale(0.100000,-0.100000)"
fill="#000000" stroke="none">
<path d="M0 825 l0 -825 825 0 825 0 0 825 0 825 -825 0 -825 0 0 -825z m760
345 c0 -5 -6 -7 -14 -4 -11 4 -13 0 -9 -18 3 -16 2 -19 -5 -9 -7 10 -9 6 -9
-13 0 -14 3 -26 8 -26 5 0 9 7 9 15 0 8 11 22 25 31 14 9 23 20 20 24 -2 4 22
8 55 9 61 1 72 -6 45 -29 -21 -17 1 -33 26 -19 29 15 74 10 97 -11 12 -12 22
-17 22 -12 0 5 -7 15 -15 22 -12 10 -13 15 -3 28 11 13 10 14 -10 3 -18 -10
-27 -10 -38 0 -10 8 -14 8 -14 0 0 -6 -4 -11 -10 -11 -5 0 -10 7 -10 15 0 8 9
15 20 15 11 0 20 -4 20 -10 0 -5 5 -10 11 -10 5 0 8 4 4 9 -3 6 16 9 43 8 47
-1 50 -2 66 -39 9 -22 20 -37 24 -34 5 3 9 -16 11 -42 2 -44 0 -47 -24 -48
-22 -2 -25 1 -19 20 4 11 8 31 10 44 2 19 0 21 -12 11 -16 -13 -21 -4 -26 45
-5 53 -23 38 -23 -18 0 -45 2 -53 14 -43 11 9 13 4 10 -34 l-4 -45 38 0 c32 1
37 -2 37 -21 0 -18 -6 -23 -25 -23 -19 0 -25 5 -25 22 0 16 -3 19 -11 11 -18
-18 12 -68 39 -67 18 0 22 -5 22 -27 0 -23 -3 -26 -22 -21 -19 5 -21 3 -11 -9
15 -18 6 -59 -12 -59 -7 0 -16 -11 -19 -25 -4 -14 -17 -30 -29 -36 -13 -6 -27
-20 -32 -31 -7 -14 -21 -22 -42 -23 -18 -2 -30 1 -27 6 3 5 0 9 -5 9 -6 0 -11
-4 -11 -10 0 -5 -5 -10 -11 -10 -5 0 -7 5 -4 10 4 6 -3 8 -17 6 -13 -3 -27 -5
-32 -5 -5 -1 -2 -9 7 -19 10 -10 14 -22 11 -25 -4 -4 -13 1 -20 11 -7 9 -16
14 -20 10 -7 -8 13 -38 27 -38 4 0 15 7 23 16 15 14 16 13 16 -6 0 -12 -4 -19
-8 -16 -5 3 -9 -1 -9 -9 0 -27 17 -16 24 15 6 33 24 51 31 32 2 -7 9 -9 15 -5
7 4 8 0 4 -11 -4 -9 -3 -15 2 -11 5 3 11 -1 14 -7 2 -7 8 -9 13 -5 5 4 4 11
-1 15 -6 4 -16 15 -24 25 -12 15 -12 17 3 11 9 -3 16 -10 16 -15 0 -5 5 -9 11
-9 5 0 7 5 4 10 -9 15 15 12 31 -4 12 -13 11 -15 -8 -19 -20 -4 -20 -4 4 -6
37 -2 42 -16 13 -35 -14 -9 -24 -24 -24 -34 1 -16 2 -16 6 0 2 10 8 18 13 18
5 0 6 -7 3 -17 -4 -11 -3 -14 5 -9 7 4 12 14 12 23 0 24 30 53 53 53 12 0 31
-10 43 -21 l23 -21 -6 21 c-3 11 -14 23 -24 26 -10 4 -19 12 -19 20 0 7 -7 16
-16 19 -8 3 -12 11 -9 16 11 18 -19 6 -33 -12 -7 -10 -17 -18 -21 -18 -14 0
-21 29 -9 36 6 4 8 3 4 -4 -3 -6 -2 -13 4 -17 10 -6 13 5 11 42 -1 11 2 24 8
27 14 9 41 -4 41 -21 0 -10 6 -13 16 -9 8 3 12 2 9 -4 -3 -6 3 -10 14 -10 12
0 21 -4 21 -10 0 -5 -7 -10 -15 -10 -18 0 -20 -26 -2 -32 20 -7 97 3 97 13 0
5 7 9 15 9 8 0 15 4 15 9 0 5 12 6 28 1 63 -19 108 -33 118 -37 6 -2 14 5 17
17 4 15 2 19 -6 12 -14 -11 -57 2 -57 18 0 5 18 10 39 10 l39 0 -1 -52 c-2
-56 -17 -72 -34 -35 -11 23 -63 44 -63 26 0 -5 -7 -9 -15 -9 -8 0 -15 7 -15
17 0 35 -15 -1 -17 -40 l-1 -42 27 33 c15 17 32 32 39 32 21 0 22 -19 1 -39
l-21 -20 21 6 c17 4 20 2 14 -12 -4 -13 -3 -16 5 -11 7 4 10 18 6 34 -5 25 -4
26 10 9 8 -10 23 -25 33 -33 17 -14 17 -15 -2 -12 -11 1 -32 -10 -48 -26 -17
-17 -22 -26 -12 -22 9 3 21 6 26 6 5 0 9 7 9 15 0 17 2 17 23 9 16 -6 11 -44
-7 -56 -8 -6 -8 -10 1 -16 6 -4 -11 -7 -38 -6 -57 0 -67 7 -48 30 12 15 11 16
-11 9 -27 -9 -34 -10 -92 -7 -21 1 -38 6 -38 11 0 5 10 7 23 4 19 -4 20 -3 4
7 -9 6 -22 8 -27 5 -6 -3 -13 1 -16 9 -7 19 -25 22 -22 4 2 -8 -12 -13 -40
-14 -32 -2 -45 2 -56 18 -10 14 -15 16 -18 6 -8 -22 25 -37 83 -38 30 0 59 -4
65 -9 5 -5 23 -11 39 -13 20 -2 33 -11 40 -25 9 -21 16 -23 87 -23 l78 0 0
-30 0 -30 -75 0 c-59 0 -75 3 -75 14 0 8 -5 18 -11 22 -8 4 -9 0 -4 -15 6 -20
4 -21 -81 -21 -48 0 -84 3 -81 6 8 8 -31 44 -47 44 -6 0 0 -7 12 -16 12 -8 22
-19 22 -24 0 -13 -56 -22 -91 -15 -29 7 -30 8 -15 31 14 20 14 23 1 18 -8 -4
-15 -10 -15 -15 0 -14 -30 -10 -46 6 -9 8 -21 15 -27 14 -9 0 -8 -2 1 -6 17
-7 15 -23 -2 -23 -8 0 -17 -4 -21 -9 -3 -6 4 -8 16 -6 12 2 19 1 15 -2 -12
-12 -47 -13 -64 -2 -16 10 -16 10 1 5 9 -3 17 -1 17 4 0 6 -7 10 -15 10 -8 0
-15 5 -15 11 0 5 5 7 10 4 6 -3 10 -4 10 -1 0 15 -20 13 -39 -3 -25 -22 -26
-29 -4 -33 9 -2 -100 -3 -243 -3 -232 0 -259 2 -262 17 -2 9 1 19 7 22 5 3 7
-3 4 -14 -5 -18 -1 -21 31 -18 20 1 36 5 36 8 0 13 -41 50 -55 50 -8 0 -15 9
-15 20 0 11 5 20 11 20 5 0 8 -4 5 -9 -3 -4 8 -8 23 -7 16 1 27 4 25 8 -6 9
23 16 66 16 26 1 31 -2 20 -10 -12 -8 -10 -8 5 -2 11 4 36 8 55 10 l35 3 -30
-9 -30 -9 30 2 c18 1 31 8 33 18 2 12 -4 15 -29 11 -20 -3 -34 0 -40 9 -7 11
-11 11 -17 1 -5 -7 -25 -12 -48 -11 -21 1 -52 -2 -68 -5 -15 -4 -34 -2 -41 4
-9 8 -15 8 -20 0 -3 -5 -11 -10 -16 -10 -11 0 22 49 34 50 4 0 7 -7 7 -15 0
-16 20 -19 58 -9 25 7 29 19 7 28 -8 3 -14 0 -12 -7 1 -7 -7 -12 -18 -12 -11
0 -19 6 -17 13 3 18 -35 15 -46 -4 -5 -9 -15 -15 -22 -12 -14 4 -17 129 -5
168 10 30 42 24 60 -10 13 -26 13 -30 1 -30 -8 0 -16 6 -19 13 -2 6 -7 10 -10
7 -12 -11 9 -28 43 -34 19 -4 30 -4 24 1 -6 4 -13 16 -17 26 -5 14 0 17 36 16
35 0 38 -2 20 -9 -13 -5 -23 -17 -23 -26 0 -11 5 -14 16 -10 9 3 20 6 25 6 6
0 7 5 4 10 -3 6 -1 10 4 10 6 0 10 3 9 8 -4 9 5 12 38 12 14 0 23 -4 19 -10
-3 -5 0 -10 7 -10 8 0 7 -6 -5 -17 -13 -13 -19 -14 -29 -5 -7 7 -16 12 -20 12
-4 0 1 -9 12 -20 11 -11 20 -28 20 -37 1 -11 7 -4 15 15 11 26 20 32 45 32 23
0 35 -7 49 -31 18 -30 19 -30 18 -6 -1 14 -5 23 -8 21 -6 -3 -39 56 -39 70 0
3 6 4 13 2 6 -1 9 -1 6 1 -4 2 -5 13 -2 23 4 14 0 20 -11 20 -9 0 -16 5 -16
10 0 12 2 12 36 0 23 -9 26 -14 20 -43 -3 -17 -2 -27 2 -20 11 17 37 -1 26
-18 -6 -12 -5 -12 9 0 11 9 21 10 30 4 24 -19 50 -24 44 -9 -3 7 -1 18 4 23 6
6 4 10 -6 10 -8 0 -15 -6 -15 -14 0 -11 -4 -11 -22 -1 -13 7 -26 12 -30 13
-12 0 -22 15 -10 15 8 0 9 7 3 23 -5 12 -14 21 -21 19 -26 -6 -36 17 -33 84 3
71 6 79 30 79 9 0 18 6 20 13 3 6 0 12 -7 12 -6 0 -8 -4 -5 -10 3 -5 1 -10 -4
-10 -6 0 -11 6 -11 13 0 8 -4 7 -10 -3 -8 -13 -12 -12 -25 8 -9 12 -23 22 -32
22 -9 0 -13 6 -10 15 4 8 2 17 -3 20 -6 4 -10 -3 -10 -14 0 -15 -5 -19 -17
-15 -15 5 -15 4 -3 -4 8 -6 18 -8 23 -5 6 4 7 -6 3 -23 -4 -16 -4 -26 -1 -22
10 10 38 -19 30 -31 -3 -5 -1 -12 5 -16 5 -3 10 2 10 11 0 10 3 15 6 11 4 -3
3 -14 -1 -24 -5 -10 -7 -24 -6 -30 1 -7 -3 -13 -10 -13 -8 0 -8 -4 -1 -12 7
-9 5 -17 -6 -28 -14 -13 -15 -12 -9 3 3 9 2 17 -4 17 -10 0 -9 -40 3 -105 2
-13 -4 -21 -17 -23 -17 -4 -18 -2 -5 12 12 16 11 17 -14 10 -26 -6 -27 -5 -24
30 1 20 5 36 8 36 4 0 7 6 8 13 1 6 5 29 8 50 4 24 2 37 -5 37 -6 0 -11 -13
-11 -28 0 -15 -4 -32 -9 -37 -5 -6 -12 -28 -14 -50 -2 -22 -4 32 -3 120 l1
160 79 0 c55 0 81 4 84 13 2 6 8 10 12 7 11 -7 33 32 25 45 -8 13 -33 1 -38
-18 -3 -10 -5 9 -6 41 l-1 57 25 -16 c14 -9 25 -25 25 -36 0 -11 5 -18 13 -16
15 5 22 48 8 48 -6 0 -15 9 -21 20 -10 19 -8 20 35 20 25 0 45 -4 45 -10z
m366 -18 c1 -12 -3 -22 -7 -22 -5 0 -9 9 -9 19 0 11 -6 22 -12 25 -7 3 -4 5 7
3 13 -1 20 -10 21 -25z m-206 4 c0 -2 -8 -10 -17 -17 -16 -13 -17 -12 -4 4 13
16 21 21 21 13z m-330 -258 c0 -5 -4 -8 -10 -8 -5 0 -10 10 -10 23 0 18 2 19
10 7 5 -8 10 -18 10 -22z m538 -132 c-2 -28 -4 -32 -18 -23 -9 5 -17 16 -17
23 0 7 4 11 9 8 4 -3 8 2 8 10 0 9 5 16 10 16 6 0 10 -15 8 -34z m-858 -78 c0
-13 -18 -18 -23 -6 -3 8 -6 6 -6 -4 -1 -10 4 -18 11 -18 7 0 5 -7 -5 -18 -16
-17 -20 -65 -5 -56 4 3 8 0 8 -5 0 -6 -5 -11 -11 -11 -5 0 -7 -5 -4 -10 4 -6
11 -7 17 -4 6 4 8 -1 6 -12 -3 -16 -12 -19 -53 -19 -49 0 -50 1 -53 33 -2 21
1 31 8 30 8 -2 13 12 15 35 2 20 -1 37 -5 37 -5 0 -7 -9 -5 -20 2 -11 0 -20
-6 -20 -12 0 -12 22 1 55 9 23 14 25 60 23 27 -2 50 -6 50 -10z m170 2 c-32
-10 -93 -12 -86 -2 2 4 28 8 58 9 39 1 46 -1 28 -7z m755 0 c-3 -5 1 -10 9
-10 9 0 16 -4 16 -10 0 -12 -19 -9 -36 5 -9 7 -9 12 0 17 15 10 18 10 11 -2z
m65 0 c0 -5 -4 -10 -10 -10 -5 0 -10 5 -10 10 0 6 5 10 10 10 6 0 10 -4 10
-10z m94 -2 c-7 -12 -54 -10 -54 2 0 6 13 9 29 8 16 -1 27 -6 25 -10z m-254
-33 c10 -12 10 -15 -3 -15 -8 0 -24 -3 -34 -6 -17 -5 -17 -5 -1 9 10 8 15 17
11 20 -3 4 -2 7 4 7 6 0 16 -7 23 -15z m77 9 c-3 -3 -12 -4 -19 -1 -8 3 -5 6
6 6 11 1 17 -2 13 -5z m-614 -21 c-7 -2 -19 -2 -25 0 -7 3 -2 5 12 5 14 0 19
-2 13 -5z m767 -33 c0 -5 -2 -10 -4 -10 -3 0 -8 5 -11 10 -3 6 -1 10 4 10 6 0
11 -4 11 -10z m-1065 -110 c3 -5 -1 -10 -9 -10 -9 0 -16 5 -16 10 0 6 4 10 9
10 6 0 13 -4 16 -10z m1 -47 c-7 -7 -26 7 -26 19 0 6 6 6 15 -2 9 -7 13 -15
11 -17z m1044 7 c0 -5 -4 -10 -10 -10 -5 0 -10 5 -10 10 0 6 5 10 10 10 6 0
10 -4 10 -10z m-953 -76 c-3 -3 -12 -4 -19 -1 -8 3 -5 6 6 6 11 1 17 -2 13 -5z
m600 -20 c-3 -3 -12 -4 -19 -1 -8 3 -5 6 6 6 11 1 17 -2 13 -5z"/>
<path d="M821 1161 c-51 -9 -72 -45 -77 -130 -3 -54 -1 -76 10 -87 8 -8 19
-14 23 -13 14 3 73 -25 73 -34 0 -5 -10 -5 -22 -1 -13 3 -20 3 -16 -1 4 -4 20
-9 36 -11 23 -3 29 1 28 14 -1 23 -17 33 -40 26 -13 -5 -16 -3 -11 7 6 9 4 11
-8 6 -11 -4 -14 -2 -10 9 4 10 -1 13 -18 12 -23 -3 -24 0 -27 73 -3 74 -2 78
25 99 18 14 35 19 51 15 17 -4 22 -2 16 6 -5 9 -2 10 9 6 9 -3 19 -2 22 3 7
11 -10 11 -64 1z"/>
<path d="M801 1097 c-15 -19 -5 -25 37 -22 20 1 27 1 15 -2 -14 -3 -20 -9 -16
-19 6 -17 -1 -18 -28 -4 -25 14 -24 2 3 -21 11 -11 17 -19 13 -19 -5 0 2 -11
15 -25 24 -26 50 -33 50 -14 0 6 -6 9 -14 6 -13 -5 -40 16 -48 37 -2 5 11 15
27 22 23 10 26 13 10 14 -18 1 -17 2 4 11 24 9 24 10 5 28 -10 10 -20 14 -22
10 -2 -5 -10 -9 -18 -9 -9 0 -12 5 -9 10 9 15 -11 12 -24 -3z"/>
<path d="M920 1093 c-16 -18 -15 -53 0 -53 5 0 17 -3 27 -6 15 -5 15 -4 3 5
-13 9 -13 11 3 11 9 0 17 -7 17 -15 0 -8 -6 -15 -14 -15 -8 0 -18 -5 -22 -12
-4 -7 -3 -8 4 -4 7 4 12 2 12 -3 0 -6 -4 -11 -10 -11 -5 0 -10 -6 -10 -12 1
-7 14 2 30 21 22 26 27 38 19 47 -7 9 -7 18 0 31 10 17 10 17 11 -2 1 -11 4
-14 7 -7 14 36 -50 56 -77 25z m43 -3 c-13 -5 -23 -12 -23 -14 0 -3 7 -2 17 1
10 4 14 2 9 -5 -5 -8 -46 -14 -46 -6 0 19 17 34 39 33 25 0 25 0 4 -9z"/>
<path d="M720 1075 c0 -8 2 -15 4 -15 2 0 6 7 10 15 3 8 1 15 -4 15 -6 0 -10
-7 -10 -15z"/>
<path d="M730 1037 c0 -13 -5 -15 -24 -7 -18 6 -26 5 -29 -4 -3 -8 -17 -13
-32 -13 -30 0 -40 -7 -30 -23 4 -6 16 -8 27 -4 11 3 26 7 33 8 7 1 19 7 27 14
8 6 18 9 21 5 4 -3 9 2 13 11 4 9 4 20 0 23 -3 4 -6 -1 -6 -10z"/>
<path d="M1022 1020 c-8 -13 -8 -20 -1 -20 5 0 8 -4 4 -9 -3 -5 -1 -12 4 -15
5 -3 9 10 8 29 -1 19 -1 35 -2 35 0 0 -6 -9 -13 -20z"/>
<path d="M480 989 c0 -14 5 -19 17 -17 26 5 29 38 4 38 -15 0 -21 -6 -21 -21z"/>
<path d="M770 998 c0 -9 5 -20 10 -23 13 -8 13 5 0 25 -8 13 -10 13 -10 -2z"/>
<path d="M856 998 c3 -5 10 -6 15 -3 13 9 11 12 -6 12 -8 0 -12 -4 -9 -9z"/>
<path d="M903 976 c-8 -27 -8 -33 2 -30 6 3 12 18 13 34 1 39 -2 38 -15 -4z"/>
<path d="M715 980 c2 -29 10 -33 13 -5 1 14 -2 25 -6 25 -5 0 -8 -9 -7 -20z"/>
<path d="M963 956 c-18 -18 -33 -37 -33 -43 0 -6 -7 -10 -16 -9 -9 0 -18 -5
-20 -12 -1 -7 0 -8 3 -2 7 16 26 12 20 -4 -3 -8 0 -20 8 -26 11 -9 16 -7 25 9
9 17 14 19 31 11 11 -6 24 -8 29 -5 17 11 50 -37 43 -63 l-6 -25 22 22 c28 28
27 37 -6 53 -21 10 -27 21 -30 53 -2 29 0 36 7 25 5 -8 10 -10 10 -4 0 18 -12
24 -26 13 -7 -6 -18 -8 -24 -4 -14 9 -13 25 3 21 6 -1 9 -1 4 1 -4 3 -5 9 -1
14 11 19 -12 5 -43 -25z m27 -25 c0 -5 -6 -11 -12 -14 -7 -2 3 -9 22 -16 l35
-11 -34 5 c-38 6 -64 23 -55 36 7 12 44 12 44 0z m37 -17 c-3 -3 -12 -4 -19
-1 -8 3 -5 6 6 6 11 1 17 -2 13 -5z m-83 -38 c-3 -9 -10 -13 -16 -10 -5 3 -4
12 3 20 15 18 22 13 13 -10z"/>
<path d="M645 960 c-3 -5 -1 -10 4 -10 6 0 11 5 11 10 0 6 -2 10 -4 10 -3 0
-8 -4 -11 -10z"/>
<path d="M673 933 c-7 -2 -13 -9 -13 -14 0 -6 4 -8 9 -5 5 4 11 2 13 -2 1 -5
18 -5 36 0 19 5 30 13 26 19 -4 7 -9 7 -13 2 -8 -12 -53 -14 -46 -2 7 10 6 10
-12 2z"/>
<path d="M750 880 c21 -13 5 -23 -18 -11 -15 8 -21 7 -25 -3 -6 -16 1 -26 17
-26 6 0 4 5 -4 10 -13 8 -13 10 1 10 9 0 24 -9 34 -20 17 -19 16 -19 -16 -16
-19 2 -26 1 -16 -1 25 -7 21 -22 -5 -16 -21 4 -21 3 -5 -7 11 -7 34 -12 52
-13 21 -1 31 -5 28 -11 -3 -6 0 -6 7 1 7 6 19 9 27 6 12 -5 12 -7 1 -15 -8 -6
-1 -7 21 -2 62 12 65 30 5 28 -29 -1 -58 2 -65 6 -15 10 -4 42 13 39 38 -5 36
4 -6 26 -45 24 -76 34 -46 15z m40 -30 c0 -5 -4 -10 -10 -10 -5 0 -10 5 -10
10 0 6 5 10 10 10 6 0 10 -4 10 -10z"/>
<path d="M635 828 c0 -25 5 -42 13 -44 7 -1 8 0 2 3 -16 8 -12 23 8 24 14 0
14 2 -3 8 l-20 8 20 5 c16 5 16 6 3 7 -11 1 -15 6 -12 16 4 8 2 15 -3 15 -5 0
-9 -19 -8 -42z"/>
<path d="M858 843 c6 -2 18 -2 25 0 6 3 1 5 -13 5 -14 0 -19 -2 -12 -5z"/>
<path d="M967 826 c-28 -12 -47 -32 -47 -50 0 -4 9 2 21 15 11 13 18 18 14 12
-9 -19 5 -16 24 5 9 11 23 21 31 25 13 5 13 5 0 5 -8 0 -28 -5 -43 -12z"/>
<path d="M1000 780 c-7 -4 -18 -6 -25 -4 -6 3 -17 -7 -23 -21 -15 -33 -16 -30
8 -32 11 -1 22 6 25 18 4 11 16 24 28 28 11 4 16 10 11 14 -6 3 -16 2 -24 -3z"/>
<path d="M698 755 c-11 -11 22 -55 41 -54 12 0 11 2 -4 9 l-20 9 20 0 c16 1
17 3 5 10 -8 6 -17 8 -21 5 -4 -2 -9 3 -11 12 -2 9 -6 13 -10 9z"/>
<path d="M740 745 c14 -8 34 -14 45 -14 11 0 2 6 -20 14 -50 18 -57 18 -25 0z"/>
<path d="M920 750 c0 -5 -9 -10 -20 -10 -12 0 -20 -7 -20 -17 0 -16 2 -16 11
-3 8 11 12 12 16 3 7 -18 24 -16 17 2 -4 8 -1 15 5 15 6 0 11 5 11 10 0 6 -4
10 -10 10 -5 0 -10 -4 -10 -10z"/>
<path d="M660 740 c0 -5 5 -10 10 -10 6 0 10 5 10 10 0 6 -4 10 -10 10 -5 0
-10 -4 -10 -10z"/>
<path d="M790 720 c-21 -4 -27 -8 -14 -9 27 -1 40 -32 21 -46 -13 -9 -12 -14
7 -30 30 -27 70 -100 63 -116 -3 -9 -8 -6 -15 11 -10 24 -11 24 -11 3 -1 -34
-31 -29 -32 5 -1 15 -2 33 -3 41 -1 17 -26 28 -26 12 0 -6 4 -11 8 -11 5 0 9
-7 9 -15 0 -8 -7 -15 -14 -15 -11 0 -9 -7 6 -26 12 -15 21 -31 21 -37 0 -5
-10 3 -21 17 -16 20 -24 24 -29 15 -10 -16 -43 -3 -35 13 4 7 0 5 -8 -4 -17
-22 -31 -23 -51 -3 -8 9 -17 11 -21 6 -8 -13 33 -34 55 -28 10 2 24 0 31 -5
11 -8 10 -9 -3 -4 -10 3 -20 1 -23 -4 -6 -9 9 -14 29 -11 5 1 16 -5 26 -14 9
-8 24 -13 34 -9 12 5 15 2 10 -10 -4 -12 0 -16 15 -16 22 0 28 14 11 25 -17
11 -11 21 13 19 32 -2 77 -22 77 -34 0 -16 25 -12 48 9 22 19 29 41 13 41 -5
0 -11 -9 -14 -19 -4 -17 -9 -18 -46 -8 -38 10 -56 27 -29 27 6 0 9 3 6 6 -4 3
-15 1 -25 -4 -21 -12 -53 1 -34 12 6 4 15 5 20 1 12 -7 33 29 24 39 -3 3 1 6
10 6 10 0 17 5 17 10 0 7 -6 7 -18 1 -14 -7 -21 -5 -30 9 -7 12 -8 21 -2 25 6
3 10 1 10 -4 0 -6 10 -11 23 -10 14 0 17 2 7 6 -8 3 -21 13 -28 22 -11 14 -14
14 -22 1 -8 -13 -10 -13 -10 2 0 10 -9 22 -21 28 -20 11 -20 12 -3 31 9 10 13
19 8 20 -5 0 0 4 11 9 l20 9 -20 1 c-17 2 -16 3 5 10 33 11 0 11 -50 0z m0
-242 c0 -5 -9 -4 -20 2 -11 6 -18 15 -14 21 6 11 34 -7 34 -23z"/>
<path d="M680 699 c7 -11 14 -18 17 -15 8 8 -5 36 -17 36 -7 0 -7 -6 0 -21z"/>
<path d="M290 678 c0 -4 7 -8 15 -8 8 0 15 4 15 8 0 5 -7 9 -15 9 -8 0 -15 -4
-15 -9z"/>
<path d="M754 655 c-1 -14 4 -25 11 -25 8 0 10 9 7 25 -6 32 -17 32 -18 0z"/>
<path d="M595 650 c3 -5 11 -10 16 -10 6 0 7 5 4 10 -3 6 -11 10 -16 10 -6 0
-7 -4 -4 -10z"/>
<path d="M1250 650 c0 -5 -11 -10 -24 -10 -32 0 -56 -10 -56 -22 0 -6 6 -5 15
2 9 8 29 10 49 7 30 -5 33 -3 29 14 -6 20 -13 26 -13 9z"/>
<path d="M690 633 c8 -4 21 -13 28 -22 11 -14 11 -13 2 7 -6 12 -18 22 -28 21
-14 0 -14 -2 -2 -6z"/>
<path d="M307 593 c-4 -3 -7 -15 -7 -25 0 -13 7 -17 25 -16 26 2 34 22 13 34
-6 4 -8 3 -5 -3 4 -6 0 -14 -9 -17 -12 -4 -14 -1 -9 14 6 20 4 25 -8 13z"/>
<path d="M428 593 c7 -3 16 -2 19 1 4 3 -2 6 -13 5 -11 0 -14 -3 -6 -6z"/>
<path d="M533 589 c-16 -16 -5 -39 20 -39 19 0 16 14 -4 16 -22 3 -23 5 -9 14
9 6 20 5 30 -3 13 -11 13 -10 1 6 -16 20 -23 21 -38 6z"/>
<path d="M693 593 c-23 -8 -15 -40 10 -40 13 0 24 5 24 13 0 9 -5 10 -19 3
-11 -6 -18 -6 -18 0 0 5 6 11 13 14 6 2 10 7 7 9 -3 3 -11 3 -17 1z"/>
<path d="M1200 585 c-17 -20 -9 -27 34 -29 27 -1 32 2 24 11 -7 9 -7 13 2 13
8 0 11 3 8 6 -4 3 -16 0 -29 -6 -19 -11 -21 -10 -16 4 8 20 -7 21 -23 1z"/>
<path d="M761 574 c0 -11 3 -14 6 -6 3 7 2 16 -1 19 -3 4 -6 -2 -5 -13z"/>
<path d="M1098 572 c9 -11 21 -17 25 -14 5 2 0 10 -10 18 -26 20 -36 17 -15
-4z"/>
<path d="M946 558 c7 -11 34 -10 34 1 0 6 -9 9 -19 8 -11 0 -17 -5 -15 -9z"/>
<path d="M428 553 c7 -3 16 -2 19 1 4 3 -2 6 -13 5 -11 0 -14 -3 -6 -6z"/>
<path d="M1310 531 c-6 -12 -20 -21 -31 -21 -11 0 -18 -4 -15 -9 8 -12 42 -3
56 14 6 8 19 11 28 8 18 -7 17 -5 -10 15 -14 11 -18 10 -28 -7z"/>
<path d="M455 519 c-22 -10 -32 -19 -22 -19 10 0 27 5 38 11 15 7 29 7 51 0
17 -6 33 -9 36 -6 3 2 -4 7 -14 10 -10 4 -26 10 -34 14 -9 4 -32 0 -55 -10z"/>
<path d="M902 532 c-23 -7 -12 -20 26 -28 l37 -7 -30 -7 c-30 -8 -30 -8 -3 -9
15 0 29 3 32 8 8 12 55 20 61 11 3 -4 -2 -11 -11 -14 -8 -3 -12 -11 -9 -17 5
-7 13 -5 24 5 10 9 21 16 24 16 12 0 3 -25 -12 -30 -7 -4 22 -6 65 -5 48 0 79
4 81 11 5 14 -30 24 -77 23 l-35 -1 28 -8 c16 -5 35 -6 42 -4 7 3 16 0 21 -7
13 -21 -79 -1 -98 21 -9 11 -21 20 -27 20 -6 0 -11 7 -11 15 0 8 -4 15 -10 15
-6 0 -9 -5 -7 -12 3 -16 -70 -20 -85 -4 -7 7 -19 11 -26 8z"/>
<path d="M1255 530 c-3 -5 -1 -10 4 -10 6 0 11 5 11 10 0 6 -2 10 -4 10 -3 0
-8 -4 -11 -10z"/>
<path d="M570 510 c0 -5 5 -10 10 -10 6 0 10 5 10 10 0 6 -4 10 -10 10 -5 0
-10 -4 -10 -10z"/>
<path d="M597 508 c-2 -7 -5 -17 -5 -22 0 -5 -6 -12 -13 -17 -8 -4 -10 -12 -5
-16 5 -4 11 -3 13 4 3 9 9 9 22 1 13 -8 23 -8 37 1 13 8 14 11 4 10 -34 -3
-50 2 -50 16 0 8 5 15 10 15 6 0 10 5 10 10 0 14 -17 12 -23 -2z"/>
<path d="M626 493 c-4 -10 -2 -14 8 -10 8 3 26 -3 41 -15 14 -11 29 -17 32
-14 9 8 -15 29 -49 44 -22 9 -27 8 -32 -5z"/>
<path d="M1400 493 c-8 -3 -26 -10 -39 -15 -13 -5 -22 -11 -19 -13 6 -7 76 14
83 25 7 11 -2 12 -25 3z"/>
<path d="M405 460 c3 -5 14 -10 23 -10 15 0 15 2 2 10 -20 13 -33 13 -25 0z"/>
<path d="M1200 463 c0 -5 14 -8 31 -9 20 -1 26 2 17 7 -16 11 -48 12 -48 2z"/>
<path d="M479 422 c-14 -36 4 -51 32 -26 13 10 19 13 15 7 -5 -9 -2 -11 8 -7
9 3 16 10 16 15 0 12 37 12 42 0 2 -5 15 -7 30 -4 18 3 25 10 21 20 -4 11 -15
13 -38 9 -18 -4 -52 -2 -75 3 -39 9 -42 8 -51 -17z"/>
<path d="M400 400 c20 -13 40 -13 40 0 0 6 -12 10 -27 10 -22 0 -25 -2 -13
-10z"/>
<path d="M167 573 c-10 -9 -8 -43 2 -43 5 0 11 11 13 25 5 24 -2 32 -15 18z"/>
</g>
</svg>
